<svg xmlns="http://www.w3.org/2000/svg" height="24" viewBox="0 0 24 24" width="24"><path d="M12,2C6.48,2,2,6.48,2,12c0,1.82,0.5,3.53,1.35,5l0,0c0.21,0.36,0.44,0.71,0.7,1.04c0.01,0.02,0.02,0.03,0.03,0.05 c0.51,0.66,1.1,1.26,1.76,1.78c0.03,0.03,0.07,0.05,0.1,0.07c0.29,0.22,0.59,0.42,0.9,0.61c0.06,0.04,0.12,0.07,0.18,0.11 c0.69,0.4,1.43,0.72,2.21,0.94c0.1,0.03,0.2,0.05,0.3,0.08c0.3,0.08,0.6,0.14,0.9,0.19c0.11,0.02,0.23,0.04,0.34,0.05 C11.17,21.97,11.58,22,12,22s0.83-0.03,1.23-0.08c0.12-0.01,0.23-0.03,0.34-0.05c0.31-0.05,0.61-0.11,0.9-0.19 c0.1-0.03,0.2-0.05,0.3-0.08c0.78-0.23,1.52-0.54,2.21-0.94c0.06-0.03,0.12-0.07,0.18-0.11c0.31-0.19,0.61-0.39,0.9-0.61 c0.03-0.03,0.07-0.05,0.1-0.07c0.66-0.52,1.25-1.11,1.76-1.78c0.01-0.01,0.02-0.03,0.03-0.05c0.25-0.33,0.49-0.68,0.7-1.04l0,0 C21.5,15.53,22,13.82,22,12C22,6.48,17.52,2,12,2z M18.81,17.86c-0.02,0.02-0.04,0.04-0.05,0.06c-0.22,0.25-0.45,0.48-0.69,0.7 c-0.03,0.03-0.06,0.06-0.09,0.09c-0.8,0.71-1.71,1.28-2.71,1.67c-0.03,0.01-0.06,0.02-0.09,0.03c-0.29,0.11-0.58,0.2-0.88,0.28 c-0.07,0.02-0.14,0.04-0.21,0.05c-0.27,0.07-0.54,0.11-0.82,0.16c-0.08,0.01-0.16,0.03-0.24,0.04C12.7,20.98,12.35,21,12,21 s-0.7-0.02-1.04-0.07c-0.08-0.01-0.16-0.02-0.24-0.04c-0.28-0.04-0.55-0.09-0.82-0.16c-0.07-0.02-0.14-0.04-0.21-0.05 c-0.3-0.08-0.59-0.17-0.88-0.28c-0.03-0.01-0.06-0.02-0.09-0.03c-0.99-0.39-1.91-0.95-2.71-1.67c-0.03-0.03-0.06-0.06-0.1-0.09 c-0.24-0.22-0.47-0.45-0.68-0.7c-0.02-0.02-0.04-0.04-0.05-0.06C4.95,17.59,4.73,17.3,4.53,17C6.19,14.52,9,13,12,13 s5.81,1.52,7.47,4C19.27,17.3,19.05,17.59,18.81,17.86z M12,11.06c-1.65,0-2.98-1.34-2.98-2.98c0-1.64,1.34-2.98,2.98-2.98 c1.65,0,2.98,1.34,2.98,2.98C14.98,9.72,13.64,11.06,12,11.06z M20.02,16.06c-1.76-2.37-4.54-3.93-7.69-4.04 c2.04-0.17,3.65-1.86,3.65-3.94c0-2.19-1.78-3.97-3.98-3.97c-2.2,0-3.98,1.78-3.98,3.97c0,2.08,1.61,3.77,3.65,3.94 c-3.15,0.1-5.93,1.67-7.69,4.04C3.36,14.84,3,13.46,3,12c0-4.96,4.04-9,9-9s9,4.04,9,9C21,13.46,20.64,14.84,20.02,16.06z"></path></svg>